<svg width="363.00005" height="583.91381" xmlns="http://www.w3.org/2000/svg" data-name="Layer 1">
 <title>healthy_lifestyle</title>

 <g>
  <title>Layer 1</title>
  <path d="m83.01934,503.61335l-24.96616,92.2992l85.49016,0l9.83515,-9.07862l3.78277,9.07862l91.54267,0s9.83514,-59.76752 -2.26965,-64.30683s-163.41494,-27.99237 -163.41494,-27.99237z" fill="#2f2e41" id="svg_8"/>
  <circle cx="179.10126" cy="87.51048" r="52.202" fill="#a0616a" id="svg_9"/>
  <path d="m140.13888,113.61149s9.83515,74.142 -5.29583,82.464s90.02954,9.07861 90.02954,9.07861s-23.45307,-64.30679 -12.86139,-83.97714l-71.87232,-7.56547z" fill="#a0616a" id="svg_10"/>
  <path d="m175.31851,183.59242s-26.48578,-3.956 -32.15668,-17.109l-79.8128,35.26622s14.37445,105.16052 22.69653,124.07428l-10.59173,189.89423s74.142,49.17578 174.00665,22.69653l24.96619,-208.808l27.23584,-124.07431l-87.2,-35.02179s-17.20406,11.56874 -39.144,13.08184z" fill="#536dfe" id="svg_11"/>
  <path d="m230.54672,422.66242s-96.082,-3.02618 -89.273,25.72272s95.32538,-1.51312 95.32538,-1.51312l-6.05238,-24.2096z" fill="#a0616a" id="svg_12"/>
  <path d="m135.67404,38.13221l-9.7605,-3.90756s20.40827,-22.46835 48.80262,-20.5145l-7.98609,-8.792s19.521,-7.815 37.26734,12.69949c9.32891,10.784 20.12255,23.46009 26.85125,37.7395l10.45282,0l-4.36261,9.606l15.26917,9.606l-15.6723,-1.7255a53.67976,53.67976 0 0 1 0.42529,15.93332a20.61547,20.61547 0 0 1 -7.5492,13.48629l0,0s-12.10479,-25.05575 -12.10479,-28.96331l0,9.76886s-9.7605,-8.79194 -9.7605,-14.6532l-5.32385,6.83819l-2.66193,-10.74579l-32.83069,10.74579l5.32385,-8.79193l-20.40826,2.93064l7.98608,-10.74579s-23.07019,12.69949 -23.9577,23.44528c-0.88721,10.74563 -7.63995,20.92782 -7.63995,20.92782s-18.09223,-50.2344 7.63995,-64.8876z" fill="#2f2e41" id="svg_13"/>
  <path d="m199.14987,391.9773l0,12.87726a0.4502,0.4502 0 0 1 -0.449,0.449l-0.31953,0l0,67.08221a6.99978,6.99978 0 0 1 -6.99939,6.99939l-41.91586,0a6.99808,6.99808 0 0 1 -6.99743,-6.99872l0,-64.73018l-0.23132,0a0.31718,0.31718 0 0 1 -0.31762,-0.31568l0,-7.32873a0.31757,0.31757 0 0 1 0.3175,-0.31763l0.23151,0l0,-2.7605l-0.2334,0a0.33262,0.33262 0 0 1 -0.33136,-0.33331l0,-7.22877a0.33218,0.33218 0 0 1 0.33136,-0.33136l0.23334,0l0,-3.76831l-0.23725,0a0.29366,0.29366 0 0 1 -0.29406,-0.29333l0,-3.9455a0.29537,0.29537 0 0 1 0.29406,-0.296l0.23725,0l0,-7.9875a6.99768,6.99768 0 0 1 6.99743,-6.99743l41.91584,0a6.99931,6.99931 0 0 1 6.9994,6.99743l0,18.77875l0.31958,0a0.45014,0.45014 0 0 1 0.44895,0.44891z" fill="#3f3d56" id="svg_14"/>
  <circle cx="170.4943" cy="395.63459" r="6.86212" fill="#f2f2f2" id="svg_15"/>
  <path d="m278.20934,205.53239l23.4531,0s74.89856,163.415 56.74134,183.08523s-127.85706,73.38544 -127.85706,73.38544s-8.32208,-41.61029 -15.88757,-41.61029l75.65509,-46.90613l-37.071,-88.51642l24.9661,-79.43783z" fill="#536dfe" id="svg_16"/>
  <path d="m110.25516,415.85346s85.49023,45.393 69.60266,65.06336s-92.2992,-34.80133 -92.2992,-34.80133l22.69654,-30.26203z" fill="#a0616a" id="svg_17"/>
  <path d="m73.9407,202.5062l-10.59167,0s-15.131,14.37445 -19.67032,46.90616l-43.95251,97.94147a22.13514,22.13514 0 0 0 0.30822,18.78c9.75431,19.97772 35.42835,65.05963 73.90634,78.46863l19.67035,15.131s-2.26965,-37.071 28.74891,-37.071l-52.95862,-57.49782l20.42694,-66.5765l-15.88764,-96.08194z" fill="#536dfe" id="svg_18"/>
 </g>
</svg>