<svg width="250.00000000000003" height="459.33892" xmlns="http://www.w3.org/2000/svg" data-name="Layer 1">
 <title>working_out</title>

 <g>
  <title>Layer 1</title>
  <circle id="svg_20" fill="#2f2e41" r="30.67436" cy="71.02795" cx="89.88125"/>
  <path id="svg_21" fill="#9f616a" d="m80.07615,93.7324s1.58734,28.57208 -1.58733,28.57208s19.84169,13.49237 19.84169,13.49237l14.286,-7.93668l0,-9.524s-19.04806,-2.381 -11.11137,-23.0164s-21.42899,-1.58737 -21.42899,-1.58737z"/>
  <polygon id="svg_22" fill="#9f616a" points="13.40753173828125,407.2312922477722 11.0264892578125,431.04128980636597 18.9635009765625,433.4223017692566 25.3125,427.0733027458191 27.6934814453125,407.2312922477722 13.40753173828125,407.2312922477722 "/>
  <polygon id="svg_23" fill="#9f616a" points="127.696533203125,420.7243037223816 131.66448974609375,435.8032832145691 142.7755126953125,442.94628858566284 154.6815185546875,436.59728956222534 141.18853759765625,414.37429761886597 127.696533203125,420.7243037223816 "/>
  <circle id="svg_24" fill="#9f616a" r="23.0164" cy="83.01787" cx="87.61601"/>
  <path id="svg_25" fill="#9f616a" d="m73.7268,169.13095l-5.55568,-2.381s-9.524,-5.55568 -10.31769,-16.667s7.93668,-25.3974 7.93668,-25.3974l12.69871,-3.96834l14.92,12.14338l0.15973,19.60337l-19.84175,16.66699z"/>
  <path id="svg_26" fill="#9f616a" d="m68.17112,126.27283l-3.17467,-1.58734s-15.87338,-0.79367 -17.46072,18.25438s-7.143,50.79481 -7.143,50.79481s-12.6987,22.22273 -11.905,46.0328l-6.34935,20.63539s-8.73036,30.15941 1.58733,30.15941s9.524,-32.54042 9.524,-32.54042s19.048,-46.03279 20.63539,-53.96948s15.07971,-45.23913 11.11137,-55.55682s3.17465,-22.22273 3.17465,-22.22273z"/>
  <path id="svg_27" fill="#9f616a" d="m80.07615,176.27397l0,8.73035s5.55569,6.34936 3.17468,10.3177s-4.762,11.905 -4.762,11.905l11.11135,17.46074l37.30244,3.17467l7.418,-49.69947l-54.24447,-1.88899z"/>
  <path id="svg_28" fill="#9f616a" d="m114.99758,120.71715l6.34935,-3.17468s13.49238,-9.524 24.60374,-11.11136l34.12776,-23.0164l22.22273,-53.17582s-0.79367,-28.57207 5.55568,-25.3974s5.55567,27.77841 5.55567,27.77841s-11.905,49.20747 -22.22272,62.69984s-47.62014,35.7151 -47.62014,35.7151s-10.31769,11.905 -9.524,17.46072s-19.04807,-27.77841 -19.04807,-27.77841z"/>
  <path id="svg_29" fill="#2f2e41" d="m85.63184,207.22705s-8.73036,-5.55568 -14.286,3.96835s-15.87338,11.905 -22.22273,40.47711s-21.4291,73.81125 -25.39745,76.98588s-20.63539,36.50877 -11.11136,83.33523l15.87338,0l13.49237,-67.46186s43.65179,-53.96949 46.82646,-76.19221l14.286,83.33521s0.79367,31.74675 12.6987,46.82646l12.6987,30.15942l16.667,-7.93669l-19.048,-76.19221s9.524,-76.98588 3.17467,-98.41494l-0.91239,-28.09391s-26.07231,1.1092 -42.73935,-10.79584z"/>
  <path id="svg_30" fill="#2f2e41" d="m18.96365,427.07333l-9.524,0c-1.58733,0 -14.286,10.31769 -8.73035,15.87338s14.286,15.87337 14.286,15.87337s30.95308,3.93669 31.74675,-1.619s-13.49237,-17.42906 -13.49237,-17.42906l-3.96834,-12.6987s-7.93668,-8.73035 -10.31769,0.00001z"/>
  <path id="svg_31" fill="#2f2e41" d="m145.157,435.01002s-13.49237,-0.79367 -15.87338,-1.58734s-7.143,20.63539 0,22.22273s36.50877,3.96835 36.50877,3.96835s23.0164,-0.79367 21.42906,-7.143s-32.54042,-19.048 -32.54042,-19.048s-3.96835,-7.93677 -9.52403,1.58726z"/>
  <path id="svg_32" fill="#536dfe" d="m82.45716,119.92348l-3.96834,-2.381l-4.762,3.96834s14.286,9.524 11.11137,18.25439s-16.66705,26.98474 -16.66705,26.98474s11.905,13.49237 11.905,18.25438c0,0 30.95309,-11.11136 53.96949,0c0,0 0,-15.87337 3.17467,-19.048s4.762,-14.286 -3.17467,-23.81006a174.0074,174.0074 0 0 1 -15.07971,-22.22273l-7.93669,-4.762l-4.0879,1.29666s8.05624,9.021 0.11956,9.81471s-20.63538,-1.58742 -24.60373,-6.34943z"/>
  <path id="svg_33" fill="#2f2e41" d="m112.30007,18.7307a16.76744,16.76744 0 0 1 -10.4,5.44762c-6.93334,0.99048 -1.48571,11.88573 -1.48571,11.88573s-1.981,-3.96191 1.981,-7.42858s9.90471,-5.44763 9.90471,-9.90477z"/>
  <circle id="svg_34" fill="#2f2e41" r="8.54859" cy="38.34216" cx="98.9327"/>
  <path id="svg_35" fill="#536dfe" d="m108.91289,46.75976c-6.60419,-3.44952 -17.9654,-6.16264 -24.00173,-5.9687l1.527,-5.83788c5.34392,3.63063 16.6454,6.39441 24.00173,5.9687l-1.527,5.83788z"/>
  <path id="svg_36" fill="#2f2e41" d="m95.26886,47.27358s-10.40688,13.38026 -31.22063,16.35366s-4.46009,35.68071 -4.46009,35.68071s-5.94678,-11.89357 5.94679,-22.30044s29.73393,-16.35367 29.73393,-29.73393z"/>
  <path id="svg_37" fill="#2f2e41" d="m96.06251,46.47991s5.94678,20.81375 14.867,23.78714s4.46009,34.194 -10.40687,37.16741c0,0 12.63692,-17.097 5.20344,-30.47727s-11.89357,-23.78715 -9.66357,-30.47728z"/>
  <rect id="svg_38" fill="#2f2e41" height="6.34935" width="54.76315" y="11.58767" x="181.26893"/>
  <ellipse id="svg_39" fill="#2f2e41" ry="19.04805" rx="4.76201" cy="14.76234" cx="236.03209"/>
  <ellipse id="svg_40" fill="#2f2e41" ry="19.04805" rx="4.76201" cy="14.76234" cx="181.26893"/>
 </g>
</svg>