<svg id="Capa_1" enable-background="new 0 0 512 512" height="512" viewBox="0 0 512 512" width="512" xmlns="http://www.w3.org/2000/svg"><g><path d="m363.927 274.503-1-4.611c-1.173-.574-2.365-1.12-3.585-1.621l-78.738-32.346c-1.875-.771-3.1-2.597-3.1-4.625v-9.713c-.32.006-.637.024-.959.024h-41.092c-.322 0-.639-.019-.959-.024v9.713c0 2.028-1.224 3.854-3.1 4.625l-78.738 32.346c-1.22.501-2.412 1.046-3.585 1.621l-1 4.113v133.949l1 4.774 28.112 11.684c5.765 2.396 9.522 8.026 9.522 14.269v68.168c0 2.845 2.306 5.151 5.151 5.151h128.286c2.845 0 5.151-2.306 5.151-5.151v-68.168c0-6.243 3.757-11.873 9.522-14.269l28.112-11.684 1-4.276z" fill="#ffb392"/><g><path d="m183.609 118.743c5.671-28.762 31.075-50.524 61.475-50.524h21.832c30.4 0 55.804 21.762 61.475 50.524h13.311v-33.041c0-47.332-38.37-85.702-85.702-85.702-47.332 0-85.702 38.37-85.702 85.702v33.041z" fill="#883f2e"/><path d="m183.609 118.743c2.847-14.437 10.659-27.112 21.587-36.153 1.428-39.973 30.22-72.972 68.218-80.816-5.623-1.161-11.446-1.774-17.414-1.774-47.332 0-85.702 38.37-85.702 85.702v33.042h13.311z" fill="#6d3326"/><g><path d="m208.478 498c-2.845 0-5.151-2.306-5.151-5.151v-68.168c0-6.243-3.757-11.873-9.522-14.269l-44.732-18.592v20.908l28.112 11.684c5.765 2.396 9.522 8.026 9.522 14.269v68.168c0 2.845 2.306 5.151 5.151 5.151h128.285c2.845 0 5.151-2.306 5.151-5.151v-8.849z" fill="#ffa381"/></g><g fill="#ffa381"><path d="m182.418 168.576v-37.69c0-4.508.489-8.902 1.398-13.142h-17.292c-11.947 0-21.632 9.685-21.632 21.632v17.285c0 11.947 9.685 21.632 21.632 21.632h16.802c-.587-3.152-.908-6.397-.908-9.717z"/><path d="m345.476 117.743h-17.292c.909 4.24 1.398 8.634 1.398 13.142v37.69c0 3.32-.321 6.565-.908 9.718h16.802c11.947 0 21.632-9.685 21.632-21.632v-17.285c.001-11.948-9.684-21.633-21.632-21.633z"/></g><g><path d="m276.546 222.611h-41.092c-29.843 0-54.036-24.193-54.036-54.036v-37.691c0-35.162 28.504-63.666 63.666-63.666h21.832c35.162 0 63.666 28.504 63.666 63.666v37.691c0 29.844-24.193 54.036-54.036 54.036z" fill="#ffc495"/></g><path d="m201.337 168.576v-37.691c0-35.162 28.504-63.666 63.666-63.666h-19.918c-35.162 0-63.666 28.504-63.666 63.666v37.691c0 29.843 24.193 54.036 54.036 54.036h19.918c-29.844-.001-54.036-24.193-54.036-54.036z" fill="#ffb392"/><g><g><path d="m223.743 144.57c-4.142 0-7.5-3.358-7.5-7.5v-14.548c0-4.142 3.358-7.5 7.5-7.5s7.5 3.358 7.5 7.5v14.548c0 4.142-3.358 7.5-7.5 7.5z" fill="#bb5d4c"/></g><g><path d="m288.257 144.57c-4.142 0-7.5-3.358-7.5-7.5v-14.548c0-4.142 3.358-7.5 7.5-7.5s7.5 3.358 7.5 7.5v14.548c0 4.142-3.358 7.5-7.5 7.5z" fill="#bb5d4c"/></g></g><g><g><g><path d="m215.847 404.21c-4.3 0-8.592-.833-12.628-2.489l-29.515-12.114c-3.832-1.573-5.664-5.954-4.091-9.786s5.953-5.664 9.786-4.091l29.515 12.114c4.03 1.654 8.526 1.813 12.661.444l14.748-4.875c3.934-1.301 8.174.834 9.475 4.767 1.3 3.933-.834 8.175-4.767 9.475l-14.748 4.875c-3.39 1.122-6.916 1.68-10.436 1.68z" fill="#ffa381"/></g><g><path d="m215.847 373.869c-4.3 0-8.593-.833-12.629-2.489l-29.515-12.114c-3.832-1.573-5.664-5.954-4.091-9.786s5.953-5.664 9.786-4.091l29.515 12.114c4.03 1.654 8.526 1.812 12.662.445l14.747-4.875c3.934-1.301 8.174.834 9.475 4.767 1.3 3.933-.834 8.175-4.767 9.475l-14.748 4.875c-3.39 1.121-6.915 1.679-10.435 1.679z" fill="#ffa381"/></g><g><path d="m215.847 343.528c-4.3 0-8.592-.833-12.628-2.489l-29.515-12.114c-3.832-1.573-5.664-5.954-4.091-9.786s5.953-5.663 9.786-4.091l29.515 12.114c4.03 1.654 8.526 1.813 12.661.444l14.748-4.875c3.934-1.301 8.174.835 9.475 4.767 1.3 3.933-.834 8.175-4.767 9.475l-14.748 4.875c-3.39 1.122-6.916 1.68-10.436 1.68z" fill="#ffa381"/></g><g><path d="m239.175 300.27c-1.952 0-3.902-.757-5.372-2.266l-5.458-5.601h-45.223c-4.142 0-7.5-3.358-7.5-7.5s3.358-7.5 7.5-7.5h46.214c3.391 0 6.693 1.393 9.06 3.821l6.149 6.311c2.891 2.966 2.83 7.715-.137 10.605-1.457 1.422-3.346 2.13-5.233 2.13z" fill="#ffa381"/></g></g><g><g><path d="m295.955 404.287c-3.364 0-6.731-.508-9.978-1.53l-16.1-5.068c-3.951-1.244-6.146-5.455-4.902-9.406s5.454-6.144 9.406-4.902l16.099 5.068c4.064 1.279 8.472 1.092 12.413-.525l29.708-12.193c3.831-1.574 8.213.258 9.786 4.091 1.573 3.832-.259 8.213-4.091 9.786l-29.708 12.193c-4.03 1.654-8.329 2.486-12.633 2.486z" fill="#ffa381"/></g><g><path d="m295.956 373.946c-3.364 0-6.731-.508-9.979-1.531l-16.1-5.068c-3.951-1.244-6.146-5.455-4.902-9.406s5.454-6.146 9.406-4.902l16.099 5.068c4.065 1.279 8.473 1.093 12.413-.525l29.708-12.194c3.831-1.572 8.213.258 9.786 4.091 1.573 3.832-.259 8.213-4.091 9.786l-29.708 12.194c-4.029 1.655-8.328 2.487-12.632 2.487z" fill="#ffa381"/></g><g><path d="m295.955 343.605c-3.364 0-6.731-.508-9.978-1.53l-16.1-5.068c-3.951-1.244-6.146-5.455-4.902-9.406s5.454-6.145 9.406-4.902l16.099 5.068c4.064 1.279 8.472 1.092 12.413-.525l29.708-12.193c3.831-1.573 8.213.259 9.786 4.091s-.259 8.213-4.091 9.786l-29.708 12.193c-4.03 1.653-8.329 2.486-12.633 2.486z" fill="#ffa381"/></g><g><path d="m272.825 300.27c-1.887 0-3.776-.708-5.234-2.129-2.967-2.891-3.028-7.639-.137-10.605l6.15-6.311c2.366-2.428 5.668-3.821 9.06-3.821h46.214c4.142 0 7.5 3.358 7.5 7.5s-3.358 7.5-7.5 7.5h-45.223l-5.458 5.601c-1.47 1.507-3.42 2.265-5.372 2.265z" fill="#ffa381"/></g></g></g><g><g><path d="m219.561 474c-4.142 0-7.5-3.358-7.5-7.5v-21.889c0-8.404 4.583-16.125 11.961-20.15l11.66-6.36c3.635-1.984 8.192-.644 10.175 2.993 1.984 3.636.644 8.192-2.993 10.175l-11.66 6.36c-2.556 1.395-4.145 4.07-4.145 6.982v21.889c.002 4.142-3.356 7.5-7.498 7.5z" fill="#ffa381"/></g><g><path d="m292.439 474c-4.142 0-7.5-3.358-7.5-7.5v-21.889c0-2.912-1.588-5.587-4.145-6.982l-11.659-6.36c-3.636-1.983-4.977-6.539-2.993-10.175 1.983-3.636 6.537-4.978 10.175-2.993l11.66 6.36c7.378 4.024 11.962 11.746 11.962 20.15v21.889c0 4.142-3.358 7.5-7.5 7.5z" fill="#ffa381"/></g></g><g><path d="m255.997 165.864c-1.753 0-3.513-.611-4.936-1.856l-9.558-8.363c-2.994-2.619-3.421-7.12-.975-10.257l9.558-12.253c2.548-3.266 7.259-3.848 10.526-1.301 3.266 2.547 3.849 7.26 1.301 10.526l-5.198 6.664 4.223 3.696c3.117 2.728 3.433 7.466.705 10.583-1.481 1.694-3.559 2.561-5.646 2.561z" fill="#bb5d4c"/></g><g><path d="m269.142 193.342h-26.284c-4.142 0-7.5-3.358-7.5-7.5s3.358-7.5 7.5-7.5h26.284c4.142 0 7.5 3.358 7.5 7.5s-3.358 7.5-7.5 7.5z" fill="#bb5d4c"/></g><g><g><path d="m219.561 198.121c-4.142 0-7.5-3.358-7.5-7.5v-17.921c0-4.142 3.358-7.5 7.5-7.5s7.5 3.358 7.5 7.5v17.921c0 4.142-3.358 7.5-7.5 7.5z" fill="#ffa381"/></g><g><path d="m292.439 198.121c-4.142 0-7.5-3.358-7.5-7.5v-17.921c0-4.142 3.358-7.5 7.5-7.5s7.5 3.358 7.5 7.5v17.921c0 4.142-3.358 7.5-7.5 7.5z" fill="#ffa381"/></g></g><g><path d="m362.927 269.892v236.957c0 2.845 2.306 5.151 5.151 5.151h23.15c2.845 0 5.151-2.306 5.151-5.151v-183.323c0-22.905-13.084-43.66-33.452-53.634z" fill="#ffc495"/></g><g><path d="m115.621 323.526v183.323c0 2.845 2.306 5.151 5.151 5.151h23.15c2.845 0 5.151-2.306 5.151-5.151v-236.957c-20.368 9.974-33.452 30.729-33.452 53.634z" fill="#ffc495"/></g><path d="m132.151 499c-2.845 0-5.151-2.306-5.151-5.151v-183.323c0-11.771 3.463-22.97 9.587-32.434-13.069 11.152-20.966 27.643-20.966 45.434v183.323c0 2.845 2.306 5.151 5.151 5.151h23.15c2.845 0 5.151-2.306 5.151-5.151v-7.849z" fill="#ffb392"/></g></g></svg>