<?xml version="1.0"?>
<svg xmlns="http://www.w3.org/2000/svg" id="Layer_1" data-name="Layer 1" viewBox="0 0 512 512" width="512" height="512"><title>normal heart</title><path d="M447.96,254.78a112.929,112.929,0,1,1-62.88-19.12A112.794,112.794,0,0,1,447.96,254.78Z" style="fill:#f8ec7d"/><path d="M468,168.19c0,29.56-7.6,58.69-20.04,86.59A112.919,112.919,0,0,0,305.78,428.96C267.71,461.32,238,480.68,238,480.68S8,331.81,8,168.2C8,104.69,39,31.32,123,31.32A115.042,115.042,0,0,1,238,146.38,114.965,114.965,0,0,1,353,31.41C430,31.41,468,104.67,468,168.19Z" style="fill:#e48e66"/><path d="M456.634,252.36C468.82,223.464,475,195.173,475,168.19c0-69.7-42.758-143.78-122-143.78a122.219,122.219,0,0,0-114.995,81.209,122.219,122.219,0,0,0-115-81.3c-40.348,0-73.111,16.471-94.749,47.631C10.678,97.257,1,131.44,1,168.2c0,38.574,12.412,79.411,36.891,121.375,19.378,33.22,46.345,67.255,80.152,101.161,57.363,57.532,115.572,95.444,116.153,95.821a7,7,0,0,0,7.626-.012c1.176-.767,28.094-18.391,63.719-48.227A119.912,119.912,0,1,0,456.634,252.36ZM237.989,472.254a797.5,797.5,0,0,1-110.032-91.4c-32.963-33.06-59.2-66.143-77.973-98.33C26.771,242.727,15,204.263,15,168.2,15,108.286,43.285,38.32,123,38.32A108.153,108.153,0,0,1,231,146.38a7,7,0,0,0,14,0A108.107,108.107,0,0,1,353,38.41c41.613,0,66.863,22.672,80.717,41.692C451.056,103.9,461,136.012,461,168.19c0,24.367-5.485,50.014-16.282,76.34A119.92,119.92,0,0,0,295.587,428.392C268.652,450.873,246.544,466.417,237.989,472.254ZM385.08,454.5A105.245,105.245,0,0,1,310.7,423.979l0,0A105.914,105.914,0,1,1,385.08,454.5Z" style="fill:#63316d"/><path d="M453.574,299.364,345.168,382.055l-26.942-42.1a7,7,0,0,0-11.792,7.547l31.04,48.5a7,7,0,0,0,10.142,1.792l114.449-87.3a7,7,0,0,0-8.491-11.131Z" style="fill:#63316d"/></svg>
