<svg height="494pt" viewBox="-68 0 494 494.174" width="494pt" xmlns="http://www.w3.org/2000/svg"><path d="m224.75 490.175781h-190.476562c-5.523438 0-10-4.480469-10-10v-22.175781c0-5.523438 4.476562-10 10-10h190.476562c5.519531 0 10 4.476562 10 10v22.175781c0 5.523438-4.476562 10-10 10zm0 0" fill="#4671c6"/><path d="m224.75 494.175781h-190.476562c-7.71875 0-14-6.285156-14-14v-22.171875c0-7.71875 6.28125-14 14-14h190.476562c7.71875 0 14 6.28125 14 14v22.171875c0 7.714844-6.28125 14-14 14zm-190.476562-42.171875c-3.308594 0-6 2.691406-6 6v22.171875c0 3.304688 2.691406 6 6 6h190.476562c3.308594 0 6-2.695312 6-6v-22.171875c0-3.308594-2.691406-6-6-6zm0 0" fill="#3762cc"/><path d="m234.9375 345.703125v72.773437l-15.203125 39.679688c-.769531 2.015625 1.207031 3.992188 3.21875 3.222656l41.667969-15.964844h70.03125c11.011718 0 19.941406-8.925781 19.941406-19.941406v-79.769531c0-11.015625-8.929688-19.941406-19.941406-19.941406h-79.773438c-11.015625-.003907-19.941406 8.925781-19.941406 19.941406zm0 0" fill="#ffea92"/><path d="m222.070312 465.542969c-1.695312 0-3.359374-.660157-4.597656-1.902344-1.808594-1.804687-2.386718-4.523437-1.472656-6.914063l14.9375-38.992187v-72.03125c0-13.207031 10.742188-23.945313 23.945312-23.945313h79.769532c13.203125 0 23.945312 10.738282 23.945312 23.945313v79.769531c0 13.207032-10.742187 23.945313-23.945312 23.945313h-69.289063l-40.972656 15.699219c-.757813.285156-1.542969.425781-2.320313.425781zm32.808594-135.785157c-8.792968 0-15.941406 7.152344-15.941406 15.945313v72.773437c0 .488282-.089844.972657-.265625 1.429688l-13.996094 36.53125 38.515625-14.753906c.457032-.175782.945313-.265625 1.429688-.265625h70.03125c8.789062 0 15.941406-7.152344 15.941406-15.945313v-79.769531c0-8.792969-7.152344-15.945313-15.941406-15.945313zm-19.941406 88.714844h.019531zm0 0" fill="#3762cc"/><path d="m286.941406 425.113281c-4.878906-9.054687 2.953125-16.535156 12.140625-12.007812.617188.304687 1.128907.800781 1.425781 1.382812 4.195313 8.164063-1.925781 15.945313-11.898437 12.066407-.71875-.28125-1.320313-.796876-1.667969-1.441407zm1.875-26.917969-1.734375-54.695312c-.0625-1.863281 1.566407-3.398438 3.59375-3.398438h5.9375c2.027344 0 3.65625 1.535157 3.597657 3.398438l-1.738282 54.695312c-.054687 1.785157-1.648437 3.207032-3.59375 3.207032h-2.46875c-1.941406 0-3.535156-1.421875-3.59375-3.207032zm0 0" fill="#f9a7a7"/><path d="m128.070312 290.925781h-70.851562l21.117188 134.703125h.765624l-17.671874 11.03125c-1.945313 1.214844-3.074219 3.027344-3.074219 4.941406 0 3.535157 3.777343 6.402344 8.441406 6.402344h56.726563c2.839843-2.179687 4.421874-5.128906 4.394531-8.191406l-.136719-14.183594h.289062zm0 0" fill="#f9cfcf"/><path d="m194.3125 436.65625-17.671875-11.027344h.976563l21.121093-134.703125h-70.851562v134.703125h.074219l-.136719 14.179688c-.027344 3.066406 1.554687 6.011718 4.394531 8.191406h56.726562c4.664063 0 8.441407-2.867188 8.441407-6.398438.003906-1.914062-1.128907-3.726562-3.074219-4.945312zm0 0" fill="#f9cfcf"/><path d="m192.242188 102.039062-5.335938-31.410156c-.019531 0-.035156.007813-.050781.007813h-11.164063c-12.382812 0-23.015625-7.445313-27.703125-18.09375-5.433593 7.316406-14.109375 12.082031-23.925781 12.082031h-54.164062l-6.347657 37.359375-.019531.058594c-1.214844 4.359375-1.832031 8.84375-1.832031 13.347656v.003906c0 11.046875 9.710937 20.003907 21.683593 20.003907h89.011719c11.972657 0 21.683594-8.957032 21.683594-20.003907v-.003906c-.003906-4.503906-.617187-8.992187-1.835937-13.351563zm0 0" fill="#4671c6"/><path d="m172.394531 139.394531h-89.011719c-14.160156 0-25.683593-10.769531-25.683593-24.003906 0-4.816406.652343-9.621094 1.941406-14.28125l6.3125-37.160156c.324219-1.921875 1.992187-3.328125 3.945313-3.328125h54.164062c8.226562 0 15.777344-3.816406 20.710938-10.464844.847656-1.144531 2.234374-1.761719 3.660156-1.589844 1.414062.15625 2.636718 1.058594 3.210937 2.363282 4.203125 9.542968 13.640625 15.707031 24.046875 15.707031h10.9375c2.113282-.105469 3.875 1.308593 4.214844 3.320312l5.304688 31.210938c1.277343 4.640625 1.921874 9.429687 1.921874 14.21875.003907 13.238281-11.515624 24.007812-25.675781 24.007812zm-99.121093-70.773437-5.78125 34.03125c-.023438.132812-.050782.265625-.089844.394531-1.136719 4.074219-1.703125 8.207031-1.703125 12.34375 0 8.824219 7.933593 16.003906 17.683593 16.003906h89.007813c9.75 0 17.683594-7.179687 17.683594-16.003906 0-4.136719-.566407-8.269531-1.6875-12.277344-.039063-.132812-.066407-.265625-.089844-.402343l-4.769531-28.074219h-7.835938c-11.546875 0-22.183594-5.816407-28.472656-15.210938-6.222656 5.902344-14.394531 9.199219-23.15625 9.199219h-50.789062zm0 0" fill="#3762cc"/><path d="m177.007812 70.980469c-.101562 0-.203124.011719-.308593.015625v-4.390625c0-25.671875-21.851563-46.484375-48.808594-46.484375-26.960937 0-48.8125 20.8125-48.8125 46.484375v4.390625c-.105469-.003906-.207031-.015625-.308594-.015625-8.222656 0-14.890625 6.351562-14.890625 14.183593 0 7.832032 6.667969 14.183594 14.890625 14.183594.539063 0 1.070313-.03125 1.597657-.085937 5.039062 20.5625 24.394531 35.886719 47.523437 35.886719s42.488281-15.324219 47.523437-35.886719c.527344.054687 1.058594.085937 1.597657.085937 8.226562 0 14.894531-6.351562 14.894531-14.183594-.003906-7.832031-6.671875-14.183593-14.898438-14.183593zm0 0" fill="#f9cfcf"/><path d="m127.886719 139.148438c-23.535157 0-43.863281-14.589844-50.546875-35.855469-9.75-.703125-17.460938-8.566407-17.460938-18.128907 0-8.808593 6.539063-16.175781 15.199219-17.835937v-.722656c0-27.835938 23.691406-50.484375 52.8125-50.484375 29.117187 0 52.808594 22.648437 52.808594 50.484375v.722656c8.65625 1.65625 15.203125 9.027344 15.203125 17.835937 0 9.5625-7.710938 17.425782-17.464844 18.128907-6.683594 21.265625-27.015625 35.855469-50.550781 35.855469zm-47.519531-43.886719c1.824218 0 3.441406 1.246093 3.882812 3.046875 4.734375 19.335937 22.679688 32.839844 43.636719 32.839844 20.953125 0 38.898437-13.503907 43.636719-32.839844.472656-1.9375 2.28125-3.238282 4.285156-3.027344.390625.039062.792968.0625 1.199218.0625 6.003907 0 10.890626-4.566406 10.890626-10.183594 0-5.59375-4.855469-10.148437-10.835938-10.179687-.148438.003906-.300781.011719-.367188.011719-1.042968 0-2.050781-.40625-2.796874-1.140626-.769532-.753906-1.203126-1.785156-1.203126-2.859374v-4.386719c0-23.425781-20.101562-42.484375-44.808593-42.484375-24.710938 0-44.8125 19.058594-44.8125 42.484375v4.386719c0 1.074218-.433594 2.105468-1.203125 2.859374-.765625.75-1.804688 1.183594-2.875 1.140626-.054688 0-.253906-.011719-.3125-.011719-5.925782 0-10.808594 4.566406-10.808594 10.179687 0 5.617188 4.882812 10.183594 10.890625 10.183594.40625 0 .804687-.027344 1.199219-.0625.136718-.011719.269531-.019531.402344-.019531zm0 0" fill="#3762cc"/><path d="m151.644531 12.449219h-6.226562v.585937c-5.417969-5.566406-12.976563-9.035156-21.355469-9.035156h-11.457031c-25.320313 0-45.839844 20.523438-45.839844 45.84375v13.46875c0 .722656.582031 1.308594 1.304687 1.308594h55.996094c9.8125 0 18.492188-4.765625 23.921875-12.082032 4.691407 10.648438 15.324219 18.09375 27.707031 18.09375h11.164063c1.390625 0 2.515625-1.125 2.515625-2.515624v-17.941407c-.003906-20.835937-16.894531-37.726562-37.730469-37.726562zm0 0" fill="#4671c6"/><path d="m186.796875 74.636719h-10.355469c-11.945312 0-22.894531-5.796875-29.296875-15.152344-6.375 5.792969-14.925781 9.136719-23.820312 9.136719h-55.226563c-2.941406 0-5.335937-2.367188-5.335937-5.277344v-14.609375c0-26.875 22.867187-48.734375 50.972656-48.734375h9.589844c8.613281 0 16.703125 2.980469 23.042969 8.445312h4.339843c23.523438 0 42.660157 18.3125 42.660157 40.820313v18.914063c.003906 3.558593-2.945313 6.457031-6.570313 6.457031zm-38.863281-25.875c.152344 0 .308594.007812.464844.027343 1.394531.164063 2.601562 1.046876 3.179687 2.324219 4.261719 9.429688 14.019531 15.523438 24.863281 15.523438h8.929688v-17.371094c0-18.09375-15.546875-32.816406-34.660156-32.816406h-3.242188c-.164062.097656-.335938.183593-.519531.261719-1.488281.617187-3.210938.28125-4.359375-.863282-5.070313-5.058594-11.914063-7.84375-19.265625-7.84375h-9.585938c-23.699219 0-42.976562 18.273438-42.976562 40.730469v11.886719h52.5625c8.4375 0 16.457031-3.855469 21.445312-10.308594.761719-.988281 1.933594-1.550781 3.164063-1.550781zm0 0" fill="#3762cc"/><path d="m251.183594 328.128906-21.839844-16.152344-3.691406-23.132812-16.117188-107.011719c-3.097656-20.570312-23.140625-35.949219-46.859375-35.949219h-6.570312c24.902343 9.414063 42.636719 33.417969 42.636719 61.613282v83.425781h-1.421876v.109375h.183594l-2.683594 17.242188 1.371094 3.703124h.0625l4.867188 28.546876c.316406 1.835937 2.101562 3.199218 4.207031 3.199218 2.347656 0 4.25-1.683594 4.25-3.761718v-5.386719l37.210937 3.003906c3.542969.285156 6.597657-2.179687 6.597657-5.324219-.003907-1.59375-.808594-3.105468-2.203125-4.125zm0 0" fill="#f9cfcf"/><path d="m60.152344 291.089844v-.164063h-2.933594v-83.421875c0-28.101562 17.589844-52.078125 42.355469-61.5625h-4.777344c-23.71875 0-43.765625 15.375-46.863281 35.949219l-16.113282 107.007813-3.691406 23.136718h.296875l-22.140625 16.152344c-1.390625 1.015625-2.199218 2.53125-2.199218 4.125 0 3.148438 3.054687 5.613281 6.597656 5.328125l37.210937-3.003906v5.386719c0 2.078124 1.902344 3.757812 4.25 3.757812 2.105469 0 3.890625-1.359375 4.203125-3.195312l4.871094-28.546876h.0625l1.371094-3.703124-2.683594-17.246094zm0 0" fill="#f9cfcf"/><path d="m132.828125 141.589844h-9.699219c-36.402344 0-65.910156 29.507812-65.910156 65.910156v40.175781h141.523438v-40.175781c-.003907-36.402344-29.511719-65.910156-65.914063-65.910156zm0 0" fill="#6bdddd"/><path d="m129.355469 135.148438c-9.136719 0-17.664063-2.417969-24.972657-6.582032v18.136719h49.949219v-18.136719c-7.308593 4.160156-15.835937 6.582032-24.976562 6.582032zm0 0" fill="#f9cfcf"/><path d="m205.324219 347.722656c-4.078125 0-7.503907-2.746094-8.148438-6.527344l-4.75-27.867187-1.359375-3.667969c-.234375-.636718-.304687-1.328125-.203125-2.003906l2.5-16.046875c-.027343-.1875-.042969-.382813-.042969-.578125 0-1.226562.550782-2.355469 1.421876-3.121094v-80.414062c0-25.558594-16.097657-48.816406-40.050782-57.871094-1.804687-.683594-2.867187-2.5625-2.523437-4.460938.347656-1.898437 2.003906-3.28125 3.9375-3.28125h6.566406c25.59375 0 47.441406 16.917969 50.820313 39.351563l16.113281 107.007813 3.429687 21.488281 20.519532 15.175781c2.433593 1.78125 3.832031 4.457031 3.832031 7.347656 0 2.519532-1.054688 4.875-2.96875 6.640625-2.097657 1.9375-4.996094 2.933594-7.953125 2.671875l-32.886719-2.65625v1.050782c-.003906 4.28125-3.707031 7.761718-8.253906 7.761718zm-.292969-8.058594c.109375.050782.40625.066407.542969.019532v-5.105469c0-1.117187.464843-2.183594 1.285156-2.941406.824219-.757813 1.929687-1.140625 3.039063-1.042969l37.207031 3.003906c.738281.054688 1.429687-.160156 1.882812-.582031.179688-.164063.394531-.429687.394531-.757813 0-.3125-.207031-.636718-.558593-.894531-.003907-.003906-.011719-.011719-.019531-.015625l-21.84375-16.152344c-.84375-.625-1.40625-1.550781-1.570313-2.585937l-3.691406-23.136719-16.121094-107.042968c-2.28125-15.144532-14.996094-27.25-31.378906-31.1875 17.570312 12.984374 28.539062 33.835937 28.539062 56.261718v83.425782c0 1.34375-.664062 2.53125-1.679687 3.257812l-2.128906 13.679688.792968 2.148437c.226563.390625.386719.828125.464844 1.292969zm0 0" fill="#3762cc"/><path d="m52.148438 347.78125c-4.550782 0-8.25-3.480469-8.25-7.761719v-1.050781l-32.890626 2.65625c-2.945312.257812-5.847656-.734375-7.953124-2.671875-1.914063-1.765625-2.9687505-4.128906-2.9687505-6.640625 0-2.894531 1.4023435-5.578125 3.8437505-7.359375l20.472656-14.933594 3.464844-21.753906 16.113281-106.972656c3.378906-22.433594 25.222656-39.351563 50.816406-39.351563h4.777344c1.925781 0 3.582031 1.375 3.933593 3.273438.347657 1.894531-.703124 3.769531-2.503906 4.460937-23.800781 9.113281-39.785156 32.351563-39.785156 57.824219v79.570312c1.691406.464844 2.933594 2.015626 2.933594 3.855469 0 .226563-.019532.453125-.058594.675781l2.511719 16.113282c.105469.675781.039062 1.363281-.199219 2.003906l-1.359375 3.667969-4.75 27.867187c-.648437 3.78125-4.074219 6.527344-8.148437 6.527344zm-.25-8.042969c.136718.046875.433593.03125.542968-.019531l4.835938-28.359375c.082031-.484375.25-.933594.484375-1.335937l.777343-2.109376-2.035156-13.050781c-1.867187-.335937-3.289062-1.972656-3.289062-3.9375v-83.429687c0-21.96875 10.535156-42.464844 27.480468-55.511719-15.125 4.535156-26.644531 16.148437-28.804687 30.496094l-16.121094 107.007812-3.449219 21.640625c.359376 1.550782-.238281 3.183594-1.542968 4.132813l-22.136719 16.152343c-.355469.257813-.558594.582032-.558594.890626 0 .328124.214844.59375.394531.761718.457032.421875 1.167969.632813 1.882813.578125l37.210937-3.003906c1.105469-.105469 2.210938.289063 3.035157 1.046875.820312.757812 1.289062 1.824219 1.289062 2.941406v5.109375zm0 0" fill="#3762cc"/><path d="m186.574219 368.507812 12.164062-77.582031h-141.519531l12.164062 77.582031zm0 0" fill="#6bdddd"/><path d="m57.21875 247.675781h141.519531v43.25h-141.519531zm0 0" fill="#f9cfcf"/><g fill="#3762cc"><path d="m198.742188 294.925781h-141.523438c-2.210938 0-4-1.792969-4-4v-43.25c0-2.210937 1.789062-4 4-4h141.523438c2.207031 0 4 1.789063 4 4v43.25c0 2.207031-1.792969 4-4 4zm-137.523438-8h133.523438v-35.25h-133.523438zm0 0"/><path d="m198.742188 251.675781h-141.523438c-2.210938 0-4-1.792969-4-4v-40.175781c0-29.730469 19.246094-56.492188 47.164062-66.109375v-12.824219c0-1.425781.757813-2.742187 1.988282-3.457031 1.230468-.710937 2.75-.726563 3.988281-.019531 6.960937 3.960937 14.914063 6.058594 22.996094 6.058594 8.085937 0 16.039062-2.097657 23-6.058594 1.238281-.707032 2.757812-.695313 3.988281.019531s1.988281 2.035156 1.988281 3.457031v13.839844c26.679688 10.449219 44.40625 36.25 44.40625 65.09375v40.175781c.003907 2.207031-1.789062 4-3.996093 4zm-137.523438-8h133.523438v-36.175781c0-26.394531-16.761719-49.910156-41.710938-58.523438-1.613281-.554687-2.695312-2.074218-2.695312-3.78125v-10.222656c-13.214844 5.488282-28.738282 5.488282-41.953126 0v9.335938c0 1.769531-1.167968 3.332031-2.867187 3.835937-26.082031 7.726563-44.296875 32.132813-44.296875 59.355469zm0 0"/><path d="m177.617188 429.628906h-99.28125c-1.96875 0-3.644532-1.433594-3.949219-3.378906l-21.121094-134.703125c-.183594-1.15625.152344-2.332031.910156-3.21875.761719-.886719 1.871094-1.398437 3.042969-1.398437h141.519531c1.171875 0 2.28125.511718 3.039063 1.398437.761718.886719 1.09375 2.0625.914062 3.21875l-21.121094 134.703125c-.304687 1.945312-1.980468 3.378906-3.953124 3.378906zm-95.859376-8h92.441407l19.867187-126.703125h-132.171875zm0 0"/><path d="m123.519531 452.003906h-56.722656c-6.976563 0-12.441406-4.570312-12.441406-10.402344 0-3.28125 1.855469-6.398437 4.957031-8.335937l17.675781-11.03125c.632813-.394531 1.367188-.605469 2.117188-.605469h48.675781c2.195312 0 3.980469 1.765625 4 3.960938l.136719 14.183594c.042969 4.3125-2.132813 8.464843-5.960938 11.402343-.699219.539063-1.554687.828125-2.4375.828125zm-43.269531-22.375-16.699219 10.421875c-.738281.460938-1.195312 1.054688-1.195312 1.550781 0 .957032 1.773437 2.402344 4.441406 2.402344h55.234375c1.234375-1.246094 1.898438-2.691406 1.882812-4.152344l-.097656-10.222656zm0 0"/><path d="m188.945312 452.003906h-56.722656c-.878906 0-1.734375-.292968-2.4375-.824218-3.828125-2.9375-6-7.09375-5.957031-11.40625l.136719-14.183594c.019531-2.195313 1.804687-3.960938 4-3.960938h48.675781c.746094 0 1.480469.210938 2.117187.609375l17.671876 11.03125c3.105468 1.9375 4.960937 5.050781 4.960937 8.335938 0 5.828125-5.464844 10.398437-12.445313 10.398437zm-55.234374-8h55.234374c2.671876 0 4.445313-1.449218 4.445313-2.402344 0-.496093-.460937-1.089843-1.199219-1.550781l-16.699218-10.421875h-43.570313l-.097656 10.222656c-.011719 1.460938.652343 2.90625 1.886719 4.152344zm0 0"/><path d="m137.851562 111.910156c-1.105468 0-2-.894531-2-2 0-2.152344-3.273437-4.546875-7.964843-4.546875-4.691407 0-7.960938 2.394531-7.960938 4.546875 0 1.105469-.894531 2-2 2s-2-.894531-2-2c0-4.792968 5.253907-8.546875 11.960938-8.546875s11.964843 3.753907 11.964843 8.546875c0 1.105469-.894531 2-2 2zm0 0"/><path d="m103.789062 92.011719c-2.808593 0-5.09375-2.175781-5.09375-4.851563v-8.085937c0-2.671875 2.285157-4.847657 5.09375-4.847657 2.808594 0 5.09375 2.175782 5.09375 4.847657v8.085937c0 2.675782-2.285156 4.851563-5.09375 4.851563zm0 0"/><path d="m151.988281 92.011719c-2.808593 0-5.09375-2.175781-5.09375-4.851563v-8.085937c0-2.671875 2.285157-4.847657 5.09375-4.847657 2.808594 0 5.09375 2.175782 5.09375 4.847657v8.085937c0 2.675782-2.285156 4.851563-5.09375 4.851563zm0 0"/><path d="m127.828125 445.925781c-2.210937 0-4-1.792969-4-4v-124.171875c0-2.207031 1.789063-4 4-4 2.207031 0 4 1.792969 4 4v124.171875c0 2.207031-1.792969 4-4 4zm0 0"/></g><path d="m167.53125 448.003906h-76c-4.417969 0-8-3.582031-8-8v-20c0-4.417968 3.582031-8 8-8h76c4.417969 0 8 3.582032 8 8v20c0 4.417969-3.582031 8-8 8zm0 0" fill="#f9a7a7"/><path d="m167.53125 452.003906h-76c-6.617188 0-12-5.382812-12-12v-20c0-6.621094 5.382812-12 12-12h76c6.621094 0 12 5.378906 12 12v20c0 6.617188-5.378906 12-12 12zm-76-36c-2.203125 0-4 1.792969-4 4v20c0 2.203125 1.796875 4 4 4h76c2.207031 0 4-1.796875 4-4v-20c0-2.207031-1.792969-4-4-4zm0 0" fill="#3762cc"/><path d="m107.203125 119.910156c-.175781 0-.351563-.023437-.527344-.070312-1.066406-.289063-1.695312-1.386719-1.40625-2.457032 2.195313-8.046874-5.851562-13.777343-5.933593-13.835937-.90625-.628906-1.125-1.875-.492188-2.78125.628906-.90625 1.875-1.132813 2.785156-.496094.425782.296875 10.425782 7.429688 7.503906 18.164063-.242187.890625-1.050781 1.476562-1.929687 1.476562zm0 0" fill="#3762cc"/><path d="m148.933594 119.910156c-.875 0-1.683594-.585937-1.925782-1.472656-2.925781-10.734375 7.074219-17.871094 7.5-18.164062.90625-.632813 2.152344-.410157 2.785157.492187.632812.902344.410156 2.148437-.488281 2.78125-.332032.234375-8.117188 5.839844-5.9375 13.839844.292968 1.066406-.339844 2.164062-1.402344 2.457031-.179688.042969-.355469.066406-.53125.066406zm0 0" fill="#3762cc"/></svg>